[Header]
FileType HTR
DataType HTRS
FileVersion 1
NumSegments 22
NumFrames 8
DataFrameRate 24
EulerRotationOrder ZYX
CalibrationUnits mm
RotationUnits Degrees
GlobalAxisofGravity Y
BoneLengthAxis Y
ScaleFactor 1.0
[SegmentNames&Hierarchy]
reference	GLOBAL
Hips	reference
Spine	Hips
Spine1	Spine
Neck	Spine1
Head	Neck
LeftShoulder	Spine1
LeftArm	LeftShoulder
LeftForeArm	LeftArm
LeftHand	LeftForeArm
RightShoulder	Spine1
RightArm	RightShoulder
RightForeArm	RightArm
RightHand	RightForeArm
LeftUpLeg	Hips
LeftLeg	LeftUpLeg
LeftFoot	LeftLeg
LeftToeBase	LeftFoot
RightUpLeg	Hips
RightLeg	RightUpLeg
RightFoot	RightLeg
RightToeBase	RightFoot
[BasePosition]
reference	0	0	0	0	0	0	1
Hips	0	0	0	0	0	0	1
Spine	0	0	0	0	-0	90	1
Spine1	0	0	0	0	0	0	1
Neck	0	0	0	-7.352327771	-7.352327771	90	1
Head	0	0	0	0	-0	90	1
LeftShoulder	0	0	0	0	0	0	1
LeftArm	0	0	0	0	0	0	1
LeftForeArm	0	0	0	0	0	0	1
LeftHand	0	0	0	0	0	0	1
RightShoulder	0	0	0	0	-0	180	1
RightArm	0	0	0	0	-0	180	1
RightForeArm	0	0	0	0	-0	180	1
RightHand	0	0	0	0	-0	180	1
LeftUpLeg	0	0	0	0	-0	-90	1
LeftLeg	0	0	0	0	-0	-90	1
LeftFoot	0	0	0	66.57146043	-66.57146043	-90	1
LeftToeBase	0	0	0	0	-90	0	1
RightUpLeg	0	0	0	0	-0	-90	1
RightLeg	0	0	0	0	-0	-90	1
RightFoot	0	0	0	66.57146043	-66.57146043	-90	1
RightToeBase	0	0	0	0	-90	0	1
[reference]
73	0	0	0	0	-0	0	1.0
74	0	0	0	0	-0	0	1.0
75	0	0	0	0	-0	0	1.0
76	0	0	0	0	-0	0	1.0
77	0	0	0	0	-0	0	1.0
78	0	0	0	0	-0	0	1.0
79	0	0	0	0	-0	0	1.0
80	0	0	0	0	-0	0	1.0
[Hips]
73	2.438276768	8.663090706	-5.300359249	-14.93235779	-99.06359863	18.52854919	1.0
74	2.45105195	8.667379379	-5.41518259	-16.10206795	-100.6861267	18.65054703	1.0
75	2.463617802	8.670469284	-5.522967339	-18.32534218	-103.5985184	19.67269325	1.0
76	2.476255894	8.671520233	-5.653878212	-21.11467361	-106.3707275	21.2678566	1.0
77	2.489246368	8.671520233	-5.778156281	-13.31380844	-106.8319092	12.99678135	1.0
78	2.514840126	8.671520233	-5.863766193	-9.2022686	-106.2436905	9.052232742	1.0
79	2.573083878	8.671520233	-5.88409996	-10.03369141	-105.8730164	10.26661682	1.0
80	2.615590096	8.671520233	-5.88409996	-2.570937634	-104.8313751	3.455711126	1.0
[Spine]
73	0	0.7457100153	0	-6.653681755	0.6916394234	-91.90927124	1.0
74	0	0.7457100153	0	-6.589258194	1.688867927	-90.25737762	1.0
75	0	0.7457100153	0	-6.792098045	2.744767189	-87.76955414	1.0
76	0	0.7457100153	0	-7.117248535	2.493463993	-87.69303131	1.0
77	0	0.7457100153	0	-7.925818443	1.430337548	-90.55353546	1.0
78	0	0.7457100153	0	-8.04545784	-0.05176155269	-91.7410202	1.0
79	0	0.7457100153	0	-8.122681618	-0.5699824691	-90.31833649	1.0
80	0	0.7457100153	0	-8.097070694	-0.5826240182	-90.10075378	1.0
[Spine1]
73	0	2.140589952	0	5.281657219	0.1769136637	1.957747579	1.0
74	0	2.140589952	0	5.72800827	0.4847942889	1.637422204	1.0
75	0	2.140589952	0	6.432170391	0.7065914273	1.181133747	1.0
76	0	2.140589952	0	6.805197716	0.5776360035	4.165694237	1.0
77	0	2.140589952	0	8.684308052	0.07381209731	5.460060596	1.0
78	0	2.140589952	0	9.138899803	-0.3637740612	5.04360342	1.0
79	0	2.140589952	0	7.858542919	-0.299318403	2.695224047	1.0
80	0	2.140589952	0	7.842356682	-0.2552517653	0.6494624019	1.0
[Neck]
73	0	2.32246995	0	-16.21430779	9.7937994	-91.33866882	1.0
74	0	2.32246995	0	-14.07278919	10.48603249	-92.13023376	1.0
75	0	2.32246995	0	-10.49230576	10.92594528	-92.60136414	1.0
76	0	2.32246995	0	-8.030826569	12.2596283	-94.57539368	1.0
77	0	2.32246995	0	-9.158240318	13.41527176	-95.07984161	1.0
78	0	2.32246995	0	-10.60275745	14.30376053	-93.72093201	1.0
79	0	2.32246995	0	-10.69069672	14.33227348	-91.77529907	1.0
80	0	2.32246995	0	-10.91571522	13.98974037	-91.29598999	1.0
[Head]
73	0	1.409579992	0.1818799973	-2.409869194	2.809882641	-91.37373352	1.0
74	0	1.409579992	0.1818799973	-2.329728127	2.626191616	-92.06141663	1.0
75	0	1.409579992	0.1818799973	-3.148001432	4.299000263	-93.28465271	1.0
76	0	1.409579992	0.1818799973	-6.402040005	5.326384544	-93.68917084	1.0
77	0	1.409579992	0.1818799973	-5.447186947	6.584646225	-93.19228363	1.0
78	0	1.409579992	0.1818799973	-4.132433891	7.689745903	-94.21900177	1.0
79	0	1.409579992	0.1818799973	-4.18974781	7.665095329	-94.19625854	1.0
80	0	1.409579992	0.1818799973	-4.480555534	7.300771713	-94.36335754	1.0
[LeftShoulder]
73	0.3668199778	1.946700096	-0.02662999928	-17.227705	-12.98188686	-1.796734691	1.0
74	0.3668199778	1.946700096	-0.02662999928	-18.5497036	-12.24940491	-1.307483315	1.0
75	0.3668199778	1.946700096	-0.02662999928	-17.66811371	-12.66325188	-1.007108092	1.0
76	0.3668199778	1.946700096	-0.02662999928	-17.71393585	-12.51737404	-1.921269655	1.0
77	0.3668199778	1.946700096	-0.02662999928	-16.58841133	-12.41894627	-2.956116676	1.0
78	0.3668199778	1.946700096	-0.02662999928	-15.91511536	-12.01354599	-3.154750824	1.0
79	0.3668199778	1.946700096	-0.02662999928	-15.10900974	-11.56498146	-3.287900925	1.0
80	0.3668199778	1.946700096	-0.02662999928	-15.32987785	-11.34888077	-3.42113781	1.0
[LeftArm]
73	1.140689969	0	0	48.08864975	9.080270767	-71.23039246	1.0
74	1.140689969	0	0	47.9851532	9.718698502	-71.21775818	1.0
75	1.140689969	0	0	46.85731125	10.42887688	-71.29501343	1.0
76	1.140689969	0	0	45.007061	12.34322929	-71.76019287	1.0
77	1.140689969	0	0	42.73309326	13.97880363	-71.39590454	1.0
78	1.140689969	0	0	41.39109039	15.36454773	-72.2170639	1.0
79	1.140689969	0	0	40.52868652	15.19966793	-72.604599	1.0
80	1.140689969	0	0	40.45607758	14.04574966	-73.33856201	1.0
[LeftForeArm]
73	2.749800205	0	0	-137.5970612	-48.26167679	156.4804688	1.0
74	2.749800205	0	0	-137.6317291	-48.37794113	156.3855591	1.0
75	2.749800205	0	0	-134.246048	-47.59801865	154.3915405	1.0
76	2.749800205	0	0	-133.3284912	-47.98946381	153.7153778	1.0
77	2.749800205	0	0	-131.6425629	-49.24350357	151.5523529	1.0
78	2.749800205	0	0	-130.3952026	-53.14255142	146.6970215	1.0
79	2.749800205	0	0	-124.383667	-60.17436218	136.3460236	1.0
80	2.749800205	0	0	-101.5871811	-67.45399475	110.9905777	1.0
[LeftHand]
73	2.295179844	0	0	-8.632392883	-19.7381134	6.828696728	1.0
74	2.295179844	0	0	-8.992856026	-18.80627441	8.755552292	1.0
75	2.295179844	0	0	-10.17081547	-18.27783585	8.70130825	1.0
76	2.295179844	0	0	-10.09654808	-19.2914772	8.300554276	1.0
77	2.295179844	0	0	-10.66774178	-20.53292465	6.251497269	1.0
78	2.295179844	0	0	-13.14526367	-19.85706329	5.668261528	1.0
79	2.295179844	0	0	-14.2869339	-18.81481171	3.588176966	1.0
80	2.295179844	0	0	-13.78824902	-18.50465965	3.269598246	1.0
[RightShoulder]
73	-0.3601199985	1.946700096	-0.02662999928	-7.130395412	4.207346916	176.0065308	1.0
74	-0.3601199985	1.946700096	-0.02662999928	-7.346086979	4.49151659	175.8381042	1.0
75	-0.3601199985	1.946700096	-0.02662999928	-7.734212399	4.788129807	175.7811584	1.0
76	-0.3601199985	1.946700096	-0.02662999928	-8.492733002	3.797650099	175.430481	1.0
77	-0.3601199985	1.946700096	-0.02662999928	-8.596390724	2.935237169	175.5642242	1.0
78	-0.3601199985	1.946700096	-0.02662999928	-7.217299461	3.436245918	175.8562622	1.0
79	-0.3601199985	1.946700096	-0.02662999928	-6.40645504	3.465763092	176.9234619	1.0
80	-0.3601199985	1.946700096	-0.02662999928	-6.112969875	3.943011999	177.2583008	1.0
[RightArm]
73	-1.140689969	0	0	58.95830536	-0.1031393483	-104.267067	1.0
74	-1.140689969	0	0	60.46708679	0.6864207387	-104.6541901	1.0
75	-1.140689969	0	0	62.36844254	1.601350665	-105.1306992	1.0
76	-1.140689969	0	0	62.55703354	3.407226324	-105.9845276	1.0
77	-1.140689969	0	0	60.52240372	4.003576756	-103.9758453	1.0
78	-1.140689969	0	0	59.24146271	3.090903997	-101.5455704	1.0
79	-1.140689969	0	0	58.25418854	1.884412289	-100.6329498	1.0
80	-1.140689969	0	0	53.07983017	2.30034852	-102.4616165	1.0
[RightForeArm]
73	-2.749800205	0	0	-101.6995773	45.49799728	-321.3598022	1.0
74	-2.749800205	0	0	-99.66500092	45.22438812	-320.1078796	1.0
75	-2.749800205	0	0	-97.21604156	45.12039948	-318.405365	1.0
76	-2.749800205	0	0	-98.95057678	47.56811142	-317.992981	1.0
77	-2.749800205	0	0	-98.91368103	52.75821304	-315.1639404	1.0
78	-2.749800205	0	0	-95.09049988	56.91859436	-305.7738037	1.0
79	-2.749800205	0	0	-77.85992432	61.04189301	-285.9718018	1.0
80	-2.749800205	0	0	-52.25049591	68.04211426	-253.174118	1.0
[RightHand]
73	-2.295179844	0	0	-4.30031538	17.03251076	-198.5703125	1.0
74	-2.295179844	0	0	-4.790624619	16.70236015	-200.2554932	1.0
75	-2.295179844	0	0	-5.367942333	16.85087204	-201.8682556	1.0
76	-2.295179844	0	0	-4.535787582	18.00219536	-201.6952515	1.0
77	-2.295179844	0	0	-1.348315001	18.1360321	-198.167572	1.0
78	-2.295179844	0	0	-4.224528313	16.58511925	-197.0172119	1.0
79	-2.295179844	0	0	-4.084206104	17.8847084	-193.834198	1.0
80	-2.295179844	0	0	-1.575038195	18.44611549	-194.1278381	1.0
[LeftUpLeg]
73	0.9094099998	0	0	-13.67176819	10.50530243	100.3541565	1.0
74	0.9094099998	0	0	-9.576924324	9.760576248	96.70626831	1.0
75	0.9094099998	0	0	-2.460094452	1.410842657	94.99641418	1.0
76	0.9094099998	0	0	2.532167673	-8.098705292	94.67922974	1.0
77	0.9094099998	0	0	3.450627089	-7.790668964	95.60865784	1.0
78	0.9094099998	0	0	1.485099554	3.544913292	96.44747162	1.0
79	0.9094099998	0	0	-1.262560368	8.375463486	96.55502319	1.0
80	0.9094099998	0	0	-3.438059807	3.310063839	95.72361755	1.0
[LeftLeg]
73	0	-4.498080254	0	30.13430214	-4.755016327	80.52816772	1.0
74	0	-4.498080254	0	26.77043152	-6.029220581	83.33465576	1.0
75	0	-4.498080254	0	16.75814819	0.6735904217	87.11410522	1.0
76	0	-4.498080254	0	10.21082973	10.23672295	89.14097595	1.0
77	0	-4.498080254	0	8.70167923	6.885673046	85.21920013	1.0
78	0	-4.498080254	0	13.13477612	-4.167699814	86.00897217	1.0
79	0	-4.498080254	0	16.73905563	-5.050023079	88.0436554	1.0
80	0	-4.498080254	0	18.76762199	-2.07967639	87.47798157	1.0
[LeftFoot]
73	0	-3.729400158	0	119.0234299	74.54816437	168.8036194	1.0
74	0	-3.729400158	0	119.5930023	77.43178558	168.5962982	1.0
75	0	-3.729400158	0	104.5118408	68.29837799	156.0504761	1.0
76	0	-3.729400158	0	104.1266098	64.19628906	160.0334778	1.0
77	0	-3.729400158	0	115.0661163	64.70056152	168.3007965	1.0
78	0	-3.729400158	0	118.3838196	70.43818665	168.2252502	1.0
79	0	-3.729400158	0	105.4998474	77.34779358	154.3630676	1.0
80	0	-3.729400158	0	106.0221481	77.71513367	156.0556335	1.0
[LeftToeBase]
73	0	-0.5911099911	1.364109993	0	0	0	1.0
74	0	-0.5911099911	1.364109993	0	0	0	1.0
75	0	-0.5911099911	1.364109993	0	0	0	1.0
76	0	-0.5911099911	1.364109993	0	0	0	1.0
77	0	-0.5911099911	1.364109993	0	0	0	1.0
78	0	-0.5911099911	1.364109993	0	0	0	1.0
79	0	-0.5911099911	1.364109993	0	0	0	1.0
80	0	-0.5911099911	1.364109993	0	0	0	1.0
[RightUpLeg]
73	-0.9094099998	0	0	-2.855802298	-17.72548103	90.70287323	1.0
74	-0.9094099998	0	0	-0.6572446227	-17.69700623	91.33515167	1.0
75	-0.9094099998	0	0	2.427277088	-15.31553268	92.01174927	1.0
76	-0.9094099998	0	0	6.472242355	-12.39030075	93.02404022	1.0
77	-0.9094099998	0	0	6.946198463	-12.4898243	91.88994598	1.0
78	-0.9094099998	0	0	6.256438255	-12.47258091	91.3699646	1.0
79	-0.9094099998	0	0	5.109780788	-11.63773632	91.52813721	1.0
80	-0.9094099998	0	0	3.871871471	-12.34015942	90.50469208	1.0
[RightLeg]
73	0	-4.498080254	0	11.85715866	-6.55134964	87.77866364	1.0
74	0	-4.498080254	0	9.901465416	0.09063007683	88.91565704	1.0
75	0	-4.498080254	0	7.301417828	0.0192332603	90.02268219	1.0
76	0	-4.498080254	0	1.650060177	-7.437436581	90.8468399	1.0
77	0	-4.498080254	0	0.4373092353	-10.95322037	90.46125031	1.0
78	0	-4.498080254	0	1.069859147	-9.251176834	90.81613159	1.0
79	0	-4.498080254	0	1.252690673	-7.612933159	91.41960907	1.0
80	0	-4.498080254	0	1.863518715	-6.127940178	91.54344177	1.0
[RightFoot]
73	0	-3.729400158	0	76.54062653	52.44374847	112.7671356	1.0
74	0	-3.729400158	0	69.20573425	55.03098297	105.0282059	1.0
75	0	-3.729400158	0	69.44564056	56.23579407	106.0895996	1.0
76	0	-3.729400158	0	82.16033936	57.51737976	120.2778931	1.0
77	0	-3.729400158	0	90.98376465	57.0275116	130.4313507	1.0
78	0	-3.729400158	0	87.86235046	58.66776276	126.2610626	1.0
79	0	-3.729400158	0	80.77383423	60.90597916	120.627388	1.0
80	0	-3.729400158	0	75.81669617	63.19138336	119.0262756	1.0
[RightToeBase]
73	0	-0.5911099911	1.364109993	0	0	0	1.0
74	0	-0.5911099911	1.364109993	0	0	0	1.0
75	0	-0.5911099911	1.364109993	0	0	0	1.0
76	0	-0.5911099911	1.364109993	0	0	0	1.0
77	0	-0.5911099911	1.364109993	0	0	0	1.0
78	0	-0.5911099911	1.364109993	0	0	0	1.0
79	0	-0.5911099911	1.364109993	0	0	0	1.0
80	0	-0.5911099911	1.364109993	0	0	0	1.0
[EndOfFile]
